/* XPM */
static char *c3095769164b400beb1ebc219774f46du8HdF76o3ovzT17I[] = {
/* columns rows colors chars-per-pixel */
"64 64 171 2 ",
"   c None",
".  c #030203",
"X  c #0B0506",
"o  c #060609",
"O  c #0A0709",
"+  c #07080B",
"@  c #0C0B0C",
"#  c #130B0C",
"$  c #190C0E",
"%  c #0D0D12",
"&  c #110F10",
"*  c #1D0E10",
"=  c #0F1016",
"-  c #141314",
";  c #1B1415",
":  c #171817",
">  c #1A1817",
",  c #13141C",
"<  c #1C161A",
"1  c #1C1A1A",
"2  c #231314",
"3  c #291416",
"4  c #241519",
"5  c #2C1619",
"6  c #241A1B",
"7  c #2B1A1C",
"8  c #331A1C",
"9  c #3E1D1F",
"0  c #1F201F",
"q  c #20201F",
"w  c #151720",
"e  c #171822",
"r  c #191A25",
"t  c #1B1E29",
"y  c #241E23",
"u  c #2C1D23",
"i  c #331E23",
"p  c #391D21",
"a  c #1F2126",
"s  c #1E212D",
"d  c #1F2230",
"f  c #222222",
"g  c #2B2324",
"h  c #20212F",
"j  c #2D222B",
"k  c #27292B",
"l  c #2C292B",
"z  c #332325",
"x  c #3B2325",
"c  c #33242B",
"v  c #3B252B",
"b  c #34282A",
"n  c #3E282E",
"m  c #222433",
"M  c #2E2632",
"N  c #252837",
"B  c #2B2C33",
"V  c #26293A",
"C  c #2A2C3D",
"Z  c #342631",
"A  c #342936",
"S  c #3C2A34",
"D  c #342D3C",
"F  c #3D2E3B",
"G  c #2E3038",
"H  c #33343D",
"J  c #3A303F",
"K  c #432426",
"L  c #45262A",
"P  c #42292E",
"I  c #48292E",
"U  c #452C33",
"Y  c #492D35",
"T  c #472F39",
"R  c #46313C",
"E  c #4A323B",
"W  c #2B2F41",
"Q  c #2D3145",
"!  c #2F3549",
"~  c #343244",
"^  c #3D3445",
"/  c #363947",
"(  c #3A3945",
")  c #33364A",
"_  c #3C3749",
"`  c #34394E",
"'  c #3D3A4D",
"]  c #363B52",
"[  c #3E3E55",
"{  c #3C3D53",
"}  c #3A3F58",
"|  c #413647",
" . c #463542",
".. c #493643",
"X. c #493746",
"o. c #493643",
"O. c #4A3847",
"+. c #403749",
"@. c #443F4F",
"#. c #493949",
"$. c #4C3A49",
"%. c #493D4E",
"&. c #4A3B4B",
"*. c #403E54",
"=. c #453F54",
"-. c #443E52",
";. c #493D50",
":. c #493E50",
">. c #493F52",
",. c #3D4155",
"<. c #3A4058",
"1. c #3B4059",
"2. c #3B4159",
"3. c #3D4059",
"4. c #3E4058",
"5. c #3E4059",
"6. c #3E4159",
"7. c #3C415A",
"8. c #3C415B",
"9. c #3E415A",
"0. c #3C425A",
"q. c #3D425B",
"w. c #3E425B",
"e. c #3D425C",
"r. c #3D435D",
"t. c #3D435C",
"y. c #3E425C",
"u. c #3E435C",
"i. c #3E435D",
"p. c #3F425C",
"a. c #3E435E",
"s. c #3E445E",
"d. c #3F445E",
"f. c #3D435C",
"g. c #474155",
"h. c #4A4255",
"j. c #44455C",
"k. c #49455C",
"l. c #404560",
"z. c #404660",
"x. c #404661",
"c. c #424762",
"v. c #414761",
"b. c #424863",
"n. c #454963",
"m. c #434964",
"M. c #434A65",
"N. c #454964",
"B. c #454B67",
"V. c #454A65",
"C. c #494962",
"Z. c #494B65",
"A. c #494C67",
"S. c #4B4D66",
"D. c #4A4B65",
"F. c #454C68",
"G. c #474D6A",
"H. c #474E6A",
"J. c #474D6A",
"K. c #494D68",
"L. c #484E6B",
"P. c #494F6B",
"I. c #494F6C",
"U. c #484E6B",
"Y. c #504C62",
"T. c #49506D",
"R. c #49506C",
"E. c #49506E",
"W. c #4A516E",
"Q. c #4A516F",
"!. c #49506E",
/* pixels */
"                                                                                                                                ",
"                                                            [ ^ [                                                               ",
"                                                          i.i.i.d.i.                                                            ",
"                                                      ^ i.i.i.i.i.i.i.i.                                                        ",
"                                                  S F [ i.i.i.i.i.i.i.i.i.w.                                                    ",
"                                              i.w.j.i.i.i.i.i.i.i.i.i.[ w.i.i.i.                                                ",
"                                            i.i.i.i.i.i.i.i.i.i.i.i.i.' { i.i.i.i.                                              ",
"                                        i.i.i.i.i.i.i.i.i.{ { i.i.i.i.i.w.i.i.i.' F n                                           ",
"                                    i.i.i.i.i.i.i.i.i.i.j.{ { i.i.i.i.i.i.i.i.i.w.' ' *.i.                                      ",
"                                _ i.i.i.i.i.i.i.[ [ i.i.} i.l.i.i.i.i.i.i.i.i.i.i.i.j.{ [ i.i.                                  ",
"                              9 F i.i.i.i.i.i.i.{ *.i.i.a.a.i.i.i.i.i.i.i.i.i.w.[ a.i.{ { i.i.i.                                ",
"                          w.' F ' i.i.i.i.i.i.i.i.i.i.a.a.a.i.i.i.i.i.i.i.i.i.[ ' [ i.i.i.i.i.i.i.i.                            ",
"                      i.i.i.i.i.a.i.i.i.a.l.i.i.i.i.i.i.i.i.i.i.i.i.i.i.i.i.i.i.i.i.i.i.i.i.i.i.i.i.w.[                         ",
"                    i.i.i.i.i.i.i.i.i.i.{ +.} a.i.i.i.i.i.i.i.i.i.i.i.i.i.i.i.i.i.i.i.i.i.i.i.i.i.w.^ F L                       ",
"                i.i.i.i.i.i.i.i.a.a.l.*.S U } j.i.i.i.i.i.i.i.i.i.i.i.i.i.i.i.i.i.i.i.i.i.i.i.i.i.i.' ' F ' i.                  ",
"            i.i.i.i.i.i.i.i.i.i.a.a.a.} ' { i.i.i.i.i.i.i.i.i.i.i.i.i.i.i.i.i.i.i.i.i.i.i.i.i.w.i.i.a.j.i.i.i.i.i.              ",
"          +.i.i.i.i.i.i.i.i.i.i.i.i.i.i.a.a.i.i.i.[ _ [ a.i.i.i.i.i.i.i.i.i.[ _ w.i.i.i.i.i.[ | [ i.i.i.i.i.i.i.i.'             ",
"          L.M.i.i.j.i.i.i.i.i.i.i.i.i.i.i.i.i.i.i.i._ +.i.i.i.i.i.i.i.i.i.i.a.{ w.i.i.i.i.i._ { i.i.i.i.i.i.i.0.{ j             ",
"          :.S.%.+._ { i.i.i.i.i.i.i.i.i.i.i.i.i.a.a.j.l.i.i.i.i.i.i.i.i.i.i.i.i.i.i.i.i.i.i.[ i.i.i.i.i.d.d.w.] ^ 6             ",
"          L Y Y 7 $ A i.i.i.i.i.i.i.i.i.i.i.i.i.a.a.} } i.i.i.i.i.i.i.i.i.i.i.i.i.i.i.i.i.i.i.i.i.i.i.i.w.] ] ~ j ;             ",
"          g z g - , i.B.c.i.i.i.i.i.i.i.i.i.i.i.i.i.i.*.[ i.i.i.i.i.i.i.i.i.i.i.i.i.i.i.i.i.i.i.i.i.i.} ] ) Z 8 1 1             ",
"          : q k : h R.Q.G.m.d.i.i.i.i.i.i.i.i.i.i.i.i.{ [ i.i.i.i.i.i.i.i.i.i.i.i.w.' w.i.w.i.i.i.} ] ` ~ Z 5 6 ; @             ",
"          r & 1 , r M.Z.R.R.G.c.a.i.i.i.i.i.i.i.i.i.i.i.i.i.i.i.i.i.i.i.i.i.i.i.i.j.*.[ [ ^ ' Q ! ] ~ i p 7 > - @ =             ",
"          F.G , @ . i Y #.:.S.R.B.a.a.i.i.i.i.i.i.i.i.i.i.i.i.i.i.i.i.i.i.i.i.i.i.{ [ a.[ v 7 , ! ` c 7 4 : @ % s )             ",
"          R.R.b.N o 2 i z L ....Z.U.=.*.[ i.i.i.i.i.i.i.i.i.i.l.i.i.i.i.i.i.i.i.i.' w.i.} c # r ` c 6 : # + e Q ] ]             ",
"          R.R.Q.I.} h @ : f z L Y $.E p 6 F i.i.i.i.i.i.j.{ ' } i.i.i.a.i.i.i.i.d.d.<.] / j @ , A 4 # + o . W ] ` H             ",
"          L.R.R.R.R.F.) w = 1 g x L c ; % ` m.r.i.i.i.i.i.i.[ i.i.[ _ } i.i.i.i.w.] ` ~ z < # o * @ % 4 $ % ! ~ A i             ",
"          R :.F.L.R.R.R.m.g # - a g f - N R.R.G.c.i.i.i.a.a.a.a.i.i.j.i.a.i.i.] ] ) c 8 7 : @ . @ h ~ z @ d ] c 7 <             ",
"          q z T ..S.R.R.Y.E 3 . @ : 0 : d R.R.R.I.m.j.i.i.i.a.a.a.a.} *.` ] ] ] H Z 8 6 : & + e Q ] ^ u @ h D 7 : @             ",
"          # 1 g x ....g.Y.E - . V r & & % H ..X.&.U.L.M.i.i.[ [ a.*.*.i & W ] ~ z 7 ; - + , C ` ] / Z 6 @ @ 3 # . .             ",
"          o o - 0 g x L E P - e b.G.) , . 5 K L L o.S.L.J.*.n { a.i.A * w ` A i > - @ = m / ] ] D i 6 : + . X . O *             ",
"          ] , . + : f z g g # V R.R.R.b.V - & 6 z n T R C.C.U +.] { c # w ~ u ; @ o . V ] ] ] ) i 4 1 - o . o r Q 7             ",
"          n.M.M X . % > f f - m J.R.R.R.R.d.s - : q z L I E L D ` A 6 = + 3 # + # $ o W ] ` A g 6 - & . . - W ] A <             ",
"          k ^ R 8 . . o - 1 - + } S.R.G.R.R.J.] ; & 1 f b z f f i 4 : & . X , V z # t ] ~ i 6 ; & o . = N ` ~ c 6 :             ",
"          0 f k ; . d t . o + . c Y @.S.Q.Q.R.Y.T 2 . - 0 f a 4 7 1 : O @ m / ' c O e D u < & O . + a ! ] D 7 1 - @             ",
"          @ 1 f , . C J.` - . . 3 i z T g.h.D.Y.Y ; . e - : 0 1 ; @ + t ! ] ] D 6 @ . 4 ; @ . . , Q ` ) c r : @ . .             ",
"          @ . & - . 7 o.F.M.G % . @ 1 g z I Y $.I & - <.0.a = @ + w G ] ] ) Z 7 ; @ . # . . X . V ] A y , - o . % N             ",
"          ] t . . . 3 K b ` G.z.h + . - 1 g x z g & C R.R.R.` r N ] ] ` ` c 7 1 : + . . % 4 * @ W D 1 - + . + t ) )             ",
"          I.B.` - . # ; q f B ,.L.] , . O : 0 f f & C R.R.R.W.s.] ] ` S c 7 < - + . o t ) c @ % u * @ . . . V ` A i             ",
"          j.B.J.b.V % . @ 1 f f H j.E 3 . . + 1 a : V Q.Z.K.W.s.] ` A 7 > - # . . w Q ] A 6 @ . # X . O # , ) A 8 3             ",
"          L | C.g.n.u.h o o - 1 q l c 4 . , % . @ @ % ^ Y &.k.s.H u 6 ; @ o . % V ] ] j 6 : O . . @ m i X % V i 1 ;             ",
"          K l S L Y g.F.] ; . X - 0 f : o Q d.s o . . 8 K v T ' y ; - + . O d ` ] ` C 1 - @ . o t ) ~ 6 @ . u 7 : -             ",
"          p g f g x L R h.R 2 . . @ : : . z h.G.] e . X - 6 z z - + . . . m ] ~ B a - @ . . , W ) D i ; @ . 2 * + O             ",
"          ; 1 f f q z x v x ; . r @ . + . 7 I H j.F.Q = . @ 1 - . . # $ o V ) g : @ o . % N ] ] Z 5 > - @ . $ + , 3             ",
"          e # , 0 q q f f y & & } w.t o . 2 7 f k / n.b.N + o O % V c # - M 6 & + . . t ! ` D A 7 < : - o . - V D 4             ",
"          w.Q - & : 0 f f f , w z.G.B.] , . o - 0 f l ,.G.[ ; e ` ~ j @ . * O . . X . W ~ Z 8 6 1 : - + % s Q C y -             ",
"          F *.S * O - 1 0 0 - o ~  .;.M.M.W % . @ 1 q f G g.I A ) u 1 @ . . . , 7 # - W c 4 > : - @ @ r Q Q j 7 < &             ",
"          8 p z 4 . % % : 1 - . 8 K U T Z.L.d.N + . - 0 q f g 6 y > # o . % N ) u @ % M 7 , : @ @ w V ~ Z 7 3 ; & @             ",
"            6 1 & . V ) w % @ . 8 x g z R R g.k.S # . o - r q : = @ . @ d ! / c 6 + . 3 4 & + . s ! C u 3 2 & & @               ",
"                @ . N a.0.V - . 5 i q f g x K U P 2 . @ . O : & . . e Q ` A 8 6 : @ . $ @ O # . d C 5 3 ; & @                   ",
"                    N ' { *.} m - & 1 1 f q g g f % t 0.W % . . , V ` D i 8 6 : - @ . + 1 y # . h u ; # @                       ",
"                      i i ~ } [ ` t = : 0 0 f q f - @ <.I.i.m t ` ] ) i 5 < : - @ o , V ~ u O . < 2 @ @                         ",
"                          i v n ' j.j # # : r f f - . ) ;.;.M.w.) ~ M 4 : - = + = h Q H g ; + . $ #                             ",
"                              8 8 S n 3 . @ & > 1 - . z L L R ' M y 1 : - @ @ s Q Q j 5 2 - O .                                 ",
"                                  8 6 & . N m % - # o 8 x z x n 8 > - @ o , W Q Q M 3 ; & @                                     ",
"                                    1 @ . V i.` r + . 8 x f f 8 4 # X @ . d ) j u 3 & @ @                                       ",
"                                        . V { ' } Q - $ < 1 f 6 # % 4 $ . h j 6 ; @ @                                           ",
"                                            v p A [ } V - - 1 , r W u @ . r 3 # @                                               ",
"                                                9 p ^ *.] s % a Q M < @ . $ &                                                   ",
"                                                  8 8 v ^ *.i 7 u 4 - @ . #                                                     ",
"                                                      8 8 n z 3 3 - @ +                                                         ",
"                                                          6 : - & @                                                             ",
"                                                              &                                                                 ",
"                                                                                                                                "
};
