/* XPM */
static char *d9df64f3ee8d4d50f4965dc08d5a5f09MSrkI40yaEGzQCI9[] = {
/* columns rows colors chars-per-pixel */
"64 64 175 2 ",
"   c None",
".  c #020304",
"X  c #050907",
"o  c #060609",
"O  c #09070E",
"+  c #070A09",
"@  c #0B0C0C",
"#  c #0C120E",
"$  c #0D0C13",
"%  c #0F0C18",
"&  c #100F13",
"*  c #120E1C",
"=  c #0E1311",
"-  c #131314",
";  c #181717",
":  c #121C15",
">  c #15141B",
",  c #19171C",
"<  c #151A19",
"1  c #1B1A1B",
"2  c #201F1F",
"3  c #142017",
"4  c #162219",
"5  c #19251C",
"6  c #1B291E",
"7  c #161221",
"8  c #1A1524",
"9  c #171921",
"0  c #1C1A23",
"q  c #1C162B",
"w  c #1E1A2B",
"e  c #1F1730",
"r  c #201E23",
"t  c #201C2D",
"y  c #221B33",
"u  c #261E3A",
"i  c #1F2421",
"p  c #1E2D22",
"a  c #1F2129",
"s  c #1F3023",
"d  c #232222",
"f  c #24232C",
"g  c #28242F",
"h  c #232B2D",
"j  c #282A28",
"k  c #213325",
"l  c #243729",
"z  c #2C322C",
"x  c #263A2A",
"c  c #293D2D",
"v  c #252334",
"b  c #292433",
"n  c #262B33",
"m  c #292D35",
"M  c #272439",
"N  c #2B243B",
"B  c #2B2B3C",
"V  c #273131",
"C  c #2A3434",
"Z  c #2C3B34",
"A  c #2C343A",
"S  c #2E3B39",
"D  c #313B32",
"F  c #30353A",
"G  c #313D3C",
"H  c #2A402F",
"J  c #2D4432",
"K  c #2F4834",
"L  c #2F4239",
"P  c #304736",
"I  c #314A36",
"U  c #32443A",
"Y  c #334C3A",
"T  c #384B3C",
"R  c #36523C",
"E  c #39553F",
"W  c #2E2444",
"Q  c #2F2B42",
"!  c #302647",
"~  c #312C44",
"^  c #332E49",
"/  c #2E3140",
"(  c #323443",
")  c #333B42",
"_  c #35344A",
"`  c #39374E",
"'  c #363B49",
"]  c #393D4C",
"[  c #354442",
"{  c #384347",
"}  c #374A41",
"|  c #394D43",
" . c #3B444C",
".. c #3E4D4D",
"X. c #385041",
"o. c #385240",
"O. c #395043",
"+. c #3A5143",
"@. c #3A5243",
"#. c #3A5343",
"$. c #3B5343",
"%. c #395540",
"&. c #3A5740",
"*. c #3B5443",
"=. c #3B5543",
"-. c #3B5643",
";. c #3C5643",
":. c #3C5743",
">. c #3C5445",
",. c #3C5644",
"<. c #3B5443",
"1. c #3A5840",
"2. c #3B5941",
"3. c #3C5843",
"4. c #3C5943",
"5. c #3C5A42",
"6. c #3C5B42",
"7. c #3C5A43",
"8. c #3D5B43",
"9. c #3D5C43",
"0. c #3E5D43",
"q. c #3C5844",
"w. c #3C5944",
"e. c #3D5944",
"r. c #3D5A44",
"t. c #3D5B44",
"y. c #3D5C44",
"u. c #3E5C44",
"i. c #3E5D44",
"p. c #3E5C45",
"a. c #3E5E44",
"s. c #3F5E45",
"d. c #3D5C44",
"f. c #3E534A",
"g. c #3E514C",
"h. c #3D4650",
"j. c #3E4551",
"k. c #405F46",
"l. c #40544E",
"z. c #425B4C",
"x. c #425450",
"c. c #455F51",
"v. c #485F55",
"b. c #406046",
"n. c #406047",
"m. c #406147",
"M. c #416147",
"N. c #426248",
"B. c #426349",
"V. c #43644A",
"C. c #43654A",
"Z. c #43634C",
"A. c #44644C",
"S. c #45674C",
"D. c #44644C",
"F. c #46684D",
"G. c #476A4F",
"H. c #476A4E",
"J. c #486B4F",
"K. c #486C4F",
"L. c #456150",
"P. c #466450",
"I. c #476750",
"U. c #476751",
"Y. c #466450",
"T. c #486652",
"R. c #496355",
"E. c #476850",
"W. c #486B51",
"Q. c #496D51",
"!. c #496C51",
"~. c #496E51",
"^. c #4A6E52",
"/. c #4A6F52",
"(. c #496D51",
/* pixels */
"                                                                                                                                ",
"                                                            >.[ &.                                                              ",
"                                                          a.u.a.a.u.                                                            ",
"                                                      [ a.u.a.u.a.a.a.u.                                                        ",
"                                                  A ) @.a.u.u.a.u.a.a.a.a.u.                                                    ",
"                                              8.u.u.u.a.u.a.a.u.a.u.a.,.u.u.a.a.                                                ",
"                                            u.a.u.a.u.a.a.a.a.a.u.a.a.} | a.u.a.a.                                              ",
"                                        u.a.a.u.a.u.a.u.u.>.@.u.a.u.a.a.a.u.a.u.} ) B                                           ",
"                                    a.a.u.a.u.a.a.a.u.a.a.@.@.u.u.a.u.a.u.a.u.a.u.} | | a.                                      ",
"                                [ u.a.u.a.u.a.u.@.@.a.u.a.a.a.a.a.u.a.u.a.u.a.u.u.a.a.&.>.a.9.                                  ",
"                              u ) u.u.a.u.a.u.a.@.@.u.a.u.a.a.u.u.a.u.a.u.a.u.u.,.u.a.| @.a.a.u.                                ",
"                          9.| ( | u.a.u.a.u.a.u.a.a.a.u.a.u.u.a.a.u.a.u.a.u.a.>.} u.a.a.u.a.u.a.a.a.                            ",
"                      8.a.a.a.u.a.a.u.a.a.a.u.a.a.u.a.u.a.u.a.u.u.a.u.a.u.a.a.u.u.a.a.u.a.u.a.u.u.u.u.&.                        ",
"                    a.a.a.a.u.a.u.a.a.u.@.} u.u.u.a.u.a.u.a.u.a.a.u.a.u.a.u.u.a.u.a.u.a.u.a.u.u.a.u.[ ( Q                       ",
"                a.a.a.u.a.u.a.u.a.u.u.u.Q / u.u.u.a.a.u.a.u.a.u.u.a.u.a.u.a.u.u.a.u.a.u.a.u.a.u.a.u.| | ) } u.                  ",
"            a.a.u.a.u.a.u.a.u.a.u.a.u.u.} &.a.u.a.u.a.a.u.a.u.a.a.u.a.u.a.u.a.a.u.a.u.a.u.a.u.u.u.a.a.a.a.a.a.a.a.              ",
"          } u.a.a.a.a.a.a.a.u.a.u.a.u.a.a.a.u.a.u.u.[ &.a.u.a.u.a.u.a.u.a.u.u.} ,.a.u.a.u.a.u.[ >.a.a.a.a.u.a.a.a.|             ",
"          G.A.a.a.9.a.a.a.u.a.u.a.u.a.u.u.a.a.u.u.u.{ } u.a.u.a.u.a.u.a.u.u.u.@.u.u.a.u.a.a.[ @.9.a.a.a.u.a.u.8.R v             ",
"          l.T...{ } @.a.u.a.u.a.u.a.u.a.u.a.u.a.u.a.a.a.a.u.a.u.a.u.a.u.a.u.a.a.a.a.u.a.u.a.,.u.a.u.a.u.9.a.8.R U 0             ",
"          ! _ _ w % A a.a.u.a.u.a.u.a.u.a.u.a.u.a.a.a.a.u.a.u.a.u.a.u.a.u.a.u.a.a.u.a.u.a.u.u.a.u.a.u.a.8.R R U b 1             ",
"          g b f - 3 7.S.M.9.9.k.a.u.a.u.u.a.u.a.a.u.a.@.>.u.a.u.a.u.a.u.a.u.a.u.u.a.a.a.a.a.a.u.a.u.a.E R I m y 9 ;             ",
"          ; d d ; p /.~.J.V.k.9.u.a.u.a.a.u.a.u.u.a.u.| @.a.u.a.u.a.u.a.u.a.u.a.a.,.} u.a.9.a.a.8.&.R Y L B y 0 ; $             ",
"          4 = 1 ; 4 A.L.!.!.J.M.a.a.a.u.u.a.u.a.a.u.a.a.a.a.a.u.a.u.a.u.a.u.a.u.a.a.@.u.>.[ o.H J R U M v w , - @ =             ",
"          F.H : @ . v _ ....I.J.G.a.a.u.a.u.a.u.u.a.u.u.a.a.u.a.u.a.u.a.u.a.u.a.u.| ,.a.@.B w : I Y m q 9 ; @ # k I             ",
"          !.!.N.l + 7 y b ~ ]  .c.!.f.@.&.u.a.u.a.u.a.u.u.a.u.a.a.u.u.u.a.u.a.u.9.O.u.9.&.m % 5 T n 0 ; @ X 4 J R R             ",
"          !.!./.!.&.k @ ; d b ! ^ h.` M w G u.a.u.a.u.a.a.| } a.u.a.u.a.u.a.u.a.9.9.&.R T f @ : C q & + o . J R R S             ",
"          !.!.!.^./.I.I 3 - 1 g N W b > - R N.9.a.u.a.u.u.u.,.a.a.>.[ 7.a.a.a.u.2.E T G v 9 - . > O # 8 * # I U C y             ",
"          ' l.I.T.!.!.!.D.f @ - 2 f d ; k !.!.G.s.a.u.a.a.a.a.u.u.a.a.a.a.a.2.E R I m y q ; @ . $ p U v o k Y m t ,             ",
"          r b _ ] !.W.^.R.` q . @ ; 2 ; k J.!.!.W.S.a.a.a.a.a.a.a.a.a.| U Y R R G A y 0 , @ + 4 J R [ f + k S t ; @             ",
"          & 1 f N ]  .l.v._ & . x 6 = @ @ G  . ...W.!.N.a.u.,.u.a.a.| v < J R L y r , = + : c R R I m 9 + # 8 $ X .             ",
"          X X - 2 g N ! _ ~ & 4 M.K.I : . q W W !  .A.!.W.>.Q | a.2.A * 4 R A a 1 - @ # k I o.R S v 0 1 @ . O . + *             ",
"          R : . + : r g g g = x /.K.!.D.x > - 1 v Q _ ] c.c.( } 2.Y m @ 4 L t > @ X . x E R Y I b 0 > - . . X 4 S w             ",
"          V.A.z o . @ 1 d d - k !.!.!.!.!.9.p - ; d b ! ^ ] ! S U A r @ @ 8 & + = % + J R I S t 9 - @ X . : H R A ,             ",
"          j U ' y . . X - 1 - + O.!.!.!.!.!.K.T , @ 1 d b b r d M 0 ; = . O - x v $ 5 R L b 0 ; - X . @ k T L n 0 ;             ",
"          2 d f > . p 6 . X + . B _ ..T././.W.R._ 7 X - 2 d d t w 1 - X # s Y T v @ 3 S y > - + . + 6 I R S t , - +             ",
"          @ 1 d ; . c G.Y : . . q t b ( l.l.c.v._ > . 3 - - 5 1 > # @ 6 J R R S 0 @ . 8 > @ . . : J T Y h d - @ . .             ",
"          + X = - . w  .P.D.c @ . @ 1 d m ! ^ x.~ - # 2.a.p @ @ @ 3 H R R I m w 1 @ . $ . . o . x R C d ; = X . # l             ",
"          E 6 . . . q W z T J.k.k + X - 1 f N b b $ c !.!.!.T 5 l Y R Y R B y , ; X . . # 0 * @ H S 1 # O . + p I Y             ",
"          ~.C.Y = . $ > r d z E K.E ; . X ; 0 d d = c !.!.!.!.a.R R Y A n w 1 - @ . + 6 L m @ = f > O . . . x Y C v             ",
"          f.G.K.B.c @ . @ 1 r j Z f.` q . . @ 1 d - c !.L.!.!.k.R Y A w , ; @ . . 3 J Y S 0 @ . $ o . $ $ : Y Z y q             ",
"          ~  .V.l.V.8.k X X - , d j m 0 . : # . @ @ # ) _ l.z.k.S f 9 ; @ X . = x R R n 9 ; + . . # s f O # V v 8 ;             ",
"          W b F W _ l.A.R - . o ; 2 d > . P k.p X . . y W N _ | a > - + . + k I E Y x 1 - + . X 6 K U w + . a q ; -             ",
"          u f d f N W ' x.' 8 . . @ : ; . v l.J.R 3 . @ - r g v - + . . . s %.L c i - @ . X : J I S f > @ . 8 > + O             ",
"          > 1 2 r d b N N N > . 4 @ . + . y ~ D N.N.P = . O 1 ; . . $ * o c I d ; @ X . # l R R B e , ; @ . % + : 8             ",
"          4 @ , 2 2 d d d d = = &.2.p X . > t r j T D.N.x @ . X # x n % : h 0 = o . . 6 K T S C w > ; ; o . : l S 8             ",
"          k.H - & , 2 2 d d - 4 M.G.S.Y : . o ; 2 d z T G.,.> 4 Y U f & . > O . . O . H L C e 0 1 ; - + # p J Z f -             ",
"          ( @.A 7 o - 1 0 2 - . L  .g.P.S.J = . @ 1 d d z ..~ A I f , @ . . . : w & - J n 0 , ; - @ @ 5 J J h q > #             ",
"          y M M , . = = : 1 - . y W Q ' Z.W.a.k X . = 1 d j f r f : & . . # l U f + # h w > ; @ @ 3 x K V t q > - @             ",
"            0 , - . l K 4 = O . y N t b ' ' ..z.B & . o - 1 d , - + . + 6 I U m , @ . 8 8 & + . 6 K Z a q 7 - @ @               ",
"                @ . l a.6.H = . q v d d f b ! ( ~ , . @ . + : & . X 4 J T A y 0 , O . * @ O $ . s Z e 8 > = @                   ",
"                    l } | 7.E k - $ 1 2 d d f g d $ 5 u.J # . . = x R S m e 8 : ; + . + 5 t $ . s f > = @                       ",
"                      b M S 2.y.Y p # ; 2 2 d 2 d - # 2.!.a.s p Y R U v w > ; ; @ X : x U d + . 9 7 @ O                         ",
"                          M B B } 8.n % @ : 1 d d - . U g.g.A.2.Y I V 8 ; ; = @ - k J Z t , @ . % $                             ",
"                              y u B B 8 X @ - 1 1 = . b W ! ' O.V a 1 ; - O @ 6 H P n w , - + .                                 ",
"                                  y r $ . k k # - $ . y N b W B y , - @ X : H K J z 8 > & @                                     ",
"                                    , @ . c a.Y 5 + . y N d a t 8 & + O . s K V w 8 * @ @                                       ",
"                                        . x o.| 6.J = > , 0 d 0 $ # 9 * . p n 0 > @ @                                           ",
"                                            M u A #.2.l = = , ; 6 H v @ . 4 0 $ @                                               ",
"                                                u M ) >.E p @ p J C 9 @ . % %                                                   ",
"                                                  e y B [ @.v f f 7 - + . $                                                     ",
"                                                      u u N v 8 8 - @ +                                                         ",
"                                                          r 1 & & @                                                             ",
"                                                              @                                                                 ",
"                                                                                                                                "
};
