/* XPM */
static char *_b8d4d8d642743de816b4300b92e8c9d6Eoise9nz3rs5BsV[] = {
/* columns rows colors chars-per-pixel */
"64 64 117 2 ",
"   c None",
".  c #020202",
"X  c #0C0C0C",
"o  c #131313",
"O  c #1B1B1B",
"+  c #232323",
"@  c #2B2B2B",
"#  c #333333",
"$  c #3C3C3C",
"%  c #424242",
"&  c #4C4C4C",
"*  c #535353",
"=  c #5D5D5D",
"-  c #666666",
";  c #6A6363",
":  c #6C6B6B",
">  c #727272",
",  c #7D7D7D",
"<  c #B92F2F",
"1  c #B53232",
"2  c #D61B1B",
"3  c #D81919",
"4  c red",
"5  c #E12B2B",
"6  c #FF2525",
"7  c #EF3838",
"8  c #9D4141",
"9  c #FF4646",
"0  c #FF4949",
"q  c #FF6565",
"w  c #FF6B6B",
"e  c #848484",
"r  c #8C8C8C",
"t  c #939393",
"y  c #9C9C9C",
"u  c #A3A3A3",
"i  c #ABABAB",
"p  c #B3B3B3",
"a  c #BEBDBD",
"s  c #DC8787",
"d  c #FF8C8C",
"f  c #FF9797",
"g  c #FF9D9D",
"h  c #FFBDBD",
"j  c #C3C2C2",
"k  c #C8C7C7",
"l  c #CBCBCB",
"z  c LightGray",
"x  c #D3D2D2",
"c  c #D0D0D0",
"v  c #D4D3D3",
"b  c gray84",
"n  c #D7D7D7",
"m  c #D8D7D7",
"M  c #D8D8D8",
"N  c #D9D8D8",
"B  c #DAD9D9",
"V  c #DADADA",
"C  c #DBDADA",
"Z  c gray86",
"A  c #DCDBDB",
"S  c gainsboro",
"D  c #DDDDDD",
"F  c #DEDDDD",
"G  c gray87",
"H  c #DFDFDF",
"J  c #DFDFDF",
"K  c #E0DFDF",
"L  c gray88",
"P  c #E1E1E1",
"I  c #E2E1E1",
"U  c #E2E2E2",
"Y  c #E3E2E2",
"T  c gray89",
"R  c #E4E3E3",
"E  c #E1E4E4",
"W  c #E4E4E4",
"Q  c #E5E4E4",
"!  c gray90",
"~  c #E6E5E5",
"^  c #E6E6E6",
"/  c #E7E6E6",
"(  c #E7E7E7",
")  c #E3E3E3",
"_  c #E8E7E7",
"`  c gray91",
"'  c #E9E9E9",
"]  c #EAE9E9",
"[  c #EAEAEA",
"{  c gray92",
"}  c #ECECEC",
"|  c gray93",
" . c #EEEEEE",
".. c #EFEFEF",
"X. c #FFE6E6",
"o. c #FFEEEE",
"O. c gray94",
"+. c #F1F1F1",
"@. c gray95",
"#. c #F3F3F3",
"$. c #F4F4F4",
"%. c #F6F5F5",
"&. c #F6F6F6",
"*. c gray97",
"=. c #FFF4F4",
"-. c #F8F8F8",
";. c #F9F9F9",
":. c gray98",
">. c #FCF8F8",
",. c snow",
"<. c #FFFBFB",
"1. c gray99",
"2. c #FDFDFD",
"3. c #FFFCFC",
"4. c #FEFEFE",
"5. c white",
"6. c #FFFFFF",
/* pixels */
"                                                                                                                                ",
"                                                                                                                                ",
"                                                                                                                                ",
"                                                                                                                                ",
"                                                                                                                                ",
"            j j j j j j j j j j j j j j j j j j j j j j j j j j j j j j j j j j j j j j j j j j j j j j j j j j j j             ",
"        B B B B B B B B B B B B B B B B B B S B B B B B B B B B B B B B B B B B B B B B B B B B B B B B B B B B B B B B         ",
"    k A U _ / _ _ _ _ _ _ ` / S M M B U ` / B v B B / ` ` ` S B U ` _ S B S / / B B U ` U x l L ` ` _ _ _ _ _ _ _ _ _ U A k     ",
"    l A ] -.&.-.*.*.*.*.*.*.O.- # # # & k v % # # # = S -.| = @ e &.*.> @ * / i # # j M = @ @ = B -.-.&.-.&.-.&.*.*.*.` S k     ",
"    k A ] &.-.&.*.*.*.*.*.-.| $ . > = . > c o O r % . r 2.a X . + U *.* . X a - . . p , . > > + y >.&.-.&.-.&.-.*.*.-.| S l     ",
"  a k A ] -.&.-.*.*.*.*.-.-.| $ . : * X u l o + t $ . u 2.> o = . u -.* O O , $ @ X p t . O & , S -.-.&.-.&.-.&.*.*.*.` B l a   ",
"  a l S ] -.-.&.*.*.*.*.-.-.O.$ . $ $ X e l o X O . - | S @ @ y X * $.& @ & + O - X p ` t & o . , -.&.-.&.-.&.-.*.*.*.` A k a   ",
"    l B ] -.&.-.-.&.&.&.-.-.| $ . i i X # a o # i o + v i . X O . O l * # e . @ r X i , % a u . & O.-.-.&.&.>.&.&.-.-.] A k     ",
"    k A ] &.-.&.&.-.&.&.*.-.O.% . O o X > l o $ ` - . : * X e i - . r * # p X = y X p y X + @ o y -.*.*.&.&.&.-.-.&.-.` A k     ",
"    k A ] &.%.%.&.&.*.$.*.*.O.a u u u a } ` i p #.B u i i i | 2.v u j a p / i l B u S O.a t t j O.*.*.*.&.%.$.$.*.*.*.` A k     ",
"      A K K R R R R U U K U U / _ _ ` / U / / _ U / ` ` / / R U / / / R / U / / E _ / R / ( / / R U U U K R R R U U R K A       ",
"        v x x x v x x x x x v x x x x x v x x x v v x v x x x x x x x v x x x v x x x v x x x x v v x x v x x x x x x v         ",
"            a a a a a a a a a a a a a a a a a a a a a a a a a a a a a a a a a a a a a a a a a a a a a a a a a a a a             ",
"                                                                                                                                ",
"                                                                                                                                ",
"                                                                                                                                ",
"                                                                                                                                ",
"                                                      - - - - - - - - - - - -                                                   ",
"                                                    - - - - - - - - - - - - -                                                   ",
"                                                    - - - - - - - - - - - - -                                                   ",
"                                        - - - - - - - - - - - - - - - - - - - - : - - -                                         ",
"                                        - - - - - - - - - - - - - - - - - - - - - - - -                                         ",
"                                        - - - - - - - - - - - - - - - - - : - - - - - -                                         ",
"                                  - - - - - - - - - - - - - - - - - - - - - - - - - - - - - -                                   ",
"                                  - - - - - - - - - - - - - - - - - - - - - - - - - - - - - -                                   ",
"                                  - - - - - - : : : - : - : - - - - - - - - - - - - - : - : -                                   ",
"                            - - - - - - - - : p l l l l l u - - - - - - - - - - , l l l l l l t - -                             ",
"                            - - - - - - - - : U 2.2.2.2.2.k - - - - - - - - - - r 2.2.2.2.2.2.t - -                             ",
"                            - - - - - - - - : S 2.2.2.2.2.k - - - - - - - - - - r -.2.2.2.2.2.t - -                             ",
"                            - - - - - > p j j O.2.2.2.2.2.( j a i : - - - r a a x 2.2.2.2.2.2.v a j                             ",
"                            : - - - - , *.2.2.2.2.2.2.2.2.2.2.2.U > - - - i 2.-.2.2.2.2.2.2.2.2.2.2.2.                          ",
"                            - - - - - , O.2.2.2.2.2.2.2.2.2.2.2.U : - - - i 2.2.2.2.2.2.2.2.2.2.2.2.2.                          ",
"                            - - - - - , *.2.2.2.2.2.h d d d d d s : - - - u 2.2.2.2.2.=.g d d d d d                             ",
"                            - - - - - , O.2.2.2.2.2.w 4 4 4 4 4 3 ; - - - i 2.2.2.2.2.X.6 4 4 4 4 4                             ",
"                            - - - - - , *.2.2.2.2.2.w 4 4 4 4 4 3 ; - - - i 2.2.2.2.2.X.6 4 4 4 4 4                             ",
"                          - - - - - - , O.2.2.2.2.2.w 4 4 4 4 4 3 ; - - - u 2.2.2.2.2.X.6 4 4 4 4 4 2                           ",
"                    - - - - - - - - - , O.2.2.2.2.2.w 4 4 4 4 4 3 ; - - - i 2.2.2.2.2.X.6 4 4 4 4 4 1 - - -                     ",
"                    - - - - - - - - - e *.2.2.2.2.2.w 4 4 4 4 4 3 ; - - - i 2.2.2.2.2.X.6 4 4 4 4 4 1 - : -                     ",
"                    - - - - - - - - - > l v B -.2.2.f 9 0 7 2 2 < - - - - t B m U 2.2.=.q 0 0 5 2 2 8 - - -                     ",
"                    - - - - - - - - - : : : > S 2.2.2.2.>.j ; - ; - - - - : - - t -.2.2.2.2.>.t - - - - - -                     ",
"                    - - - - - - - - - - - - > S 2.2.2.2.2.k - - - - - - - - - - r 2.2.2.2.2.2.t - - - - - -                     ",
"                    - - - - - - - - - - - - : k / U U R _ p - - - - - - - - - - e S / U / U U r - - - - - -                     ",
"                    - - - - - - - - - - - - - : > > > > > : - - - - - - - - - - : > > > > > : : - - - - - -                     ",
"                    - - - - - - - - - - - - - - - - - - - - - - - - - - - - - - - - - - - - - - - - - - - -                     ",
"                    - - - - - - - - - - - - - - - - - - - - - - - - - - - - - - - - - - - - - - - - - - - -                     ",
"                    - - - - - - - - - - - - - - - - - - - - - - - - - - - - - - - - - - - - - - - - - - - -                     ",
"                    - - - - - - - - - - - - - - - - - - - - - - - - - - - - - - - - - - - - - - - - - - - -                     ",
"                    - - - - - - - - - - - - - : - - - - - - - - - - - - - - - - - - - - - - - - - - - - - -                     ",
"                    - - - - - - - - - - - - - - - - - - - - - - - - - - - - - - - - - - - - - - - - - - - -                     ",
"                    - - - - - - - - - - - - - - - - - - - - - - - - - - - - - - - - - - - - - - - - - - - -                     ",
"                    - - - - - : - - - - - - - - - - - - - - - - - - - - - - - - - - - - - - - - - - - - - -                     ",
"                    - - - - - - - - - - - - - - - - - - - - - - - - - - : - - - - - - - - - : - - - - - - -                     ",
"                    - - - - - - - - - - - - - - - - - - - - - - - - - - - - - - - - - - - - - - : - - - - -                     ",
"                    - - - - - - -       - - - - - - - - - -             - - - - - - - -       - - - - - - -                     ",
"                    - - - - - - -       - - - - - : - - - -             - - - - - - - -       - - - - - - -                     ",
"                    - - - - - - -       - - - - - - - - - -             - - - - - - - -       - - - - - - -                     ",
"                    - - - -                   - - - - - - -             - - - - -                   - - - -                     ",
"                    - - - -                   - - - - - - -             - - - - -                   - - - -                     ",
"                    : - - -                   - - - - - - -             - - - - -                   - - - -                     "
};
