/* XPM */
static char *_30081aa27f2497d98309fd25ba7df9bm8Paf9W0f5mfJUvx[] = {
/* columns rows colors chars-per-pixel */
"64 64 113 2 ",
"   c None",
".  c #000000",
"X  c #0B0B0B",
"o  c #121212",
"O  c #1E1E1E",
"+  c gray14",
"@  c #2A2A2A",
"#  c #353535",
"$  c #3C3C3C",
"%  c #290254",
"&  c #390377",
"*  c #3C037C",
"=  c #434343",
"-  c #4B4B4B",
";  c #4E4C50",
":  c #545454",
">  c #5B5B5B",
",  c #646464",
"<  c DimGray",
"1  c #727272",
"2  c #5002A6",
"3  c #5304AD",
"4  c #5604B1",
"5  c #671ABD",
"6  c #7F31D6",
"7  c #6E01EA",
"8  c #7104EB",
"9  c #7405F1",
"0  c #9672BE",
"q  c #8426ED",
"w  c #862AED",
"e  c #994CEF",
"r  c #994CF0",
"t  c #AC6DF3",
"y  c #848484",
"u  c #8C8C8C",
"i  c #949494",
"p  c #9D9D9D",
"a  c #9E9BA0",
"s  c #A4A4A4",
"d  c #ACACAC",
"f  c #B3B3B3",
"g  c #BEBDBD",
"h  c #BF8EF5",
"j  c #C599F6",
"k  c #C99FF7",
"l  c #C190F9",
"z  c #DABFFA",
"x  c #C3C3C3",
"c  c #C8C7C7",
"v  c #CBCACA",
"b  c #D0CFCF",
"n  c #CED0CD",
"m  c #D3D2D2",
"M  c #DAD9D9",
"N  c #DBD9D9",
"B  c #DBDADA",
"V  c gray86",
"C  c #D9D8D8",
"Z  c #DCDBDB",
"A  c gainsboro",
"S  c #DDDCDC",
"D  c #DDDDDD",
"F  c gray87",
"G  c #E0DFDF",
"H  c gray88",
"J  c #E1E0E0",
"K  c #E1E1E1",
"L  c #E2E2E2",
"P  c #E3E2E2",
"I  c gray89",
"U  c #E4E3E3",
"Y  c #E4E4E4",
"T  c #E5E4E4",
"R  c gray90",
"E  c #E6E5E5",
"W  c #E6E6E6",
"Q  c #E7E7E7",
"!  c #E8E7E7",
"~  c gray91",
"^  c #E9E8E8",
"/  c #E9E9E9",
"(  c #EAE9E9",
")  c #EAEAEA",
"_  c #ECECEC",
"`  c #EEEEEE",
"'  c #F1E6FD",
"]  c #F1E7FD",
"[  c #F5EEFE",
"{  c gray94",
"}  c #F1F1F1",
"|  c gray95",
" . c #F3F3F3",
".. c #F4F4F4",
"X. c gray96",
"o. c #F6F5F5",
"O. c #F6F6F6",
"+. c gray97",
"@. c #F8F6FA",
"#. c #F9F4FE",
"$. c #F8F8F8",
"%. c #F9F9F9",
"&. c gray98",
"*. c #FBFBFB",
"=. c #FCFAFF",
"-. c #FDFBFF",
";. c gray99",
":. c #FDFDFD",
">. c #FDFCFF",
",. c #FEFEFE",
"<. c #FFFEFF",
"1. c white",
"2. c #FEFEFE",
/* pixels */
"                                                                                                                                ",
"                                                                                                                                ",
"                                                                                                                                ",
"                                                                                                                                ",
"                                                                                                                                ",
"            x x x x x x x x x x x x x x x x x x x x x x x x x x x x x x x x x x x x x x x x x x x x x x x x x x x x             ",
"        M M M M M M M M M M M M M M M Z Z M M M M M M M M M M C M M C M M M M M M M M M M M M M M M M M M M M M M M M M         ",
"    c Z L ! Q ! ! ! ! ! ! ! ! ! Q ( ( M v M ( ~ Z M Q ! A M Q L C L Q M A ! Q M A ! ( L b m P ( ! ! ! ! ! ! ! ! ! ! ! L Z c     ",
"    c Z ( +.+.+.+.+.+.+.+.+.+.+.%.| u # + # s | < $ v  ., $ m p @ p v $ : H M = < +.c : + + > m %.+.+.+.+.+.+.+.+.+.$.( A c     ",
"    c A ( +.+.+.+.+.+.+.+.+.+.+.%.s . @ 1 + @ m = . x ` $ X x u . y x X . 1 n o = L $ X > > . = ) %.+.+.+.+.+.+.+.+.$.( M c     ",
"  g c A ( $.+.+.+.+.+.+.+.+.+.+.%., . p 1.m x ( = . $ - o X c u . y x X . o u o - x X $ ` ( # o c 1.+.+.+.+.+.+.+.+.+.( A c g   ",
"  g c A ( $.+.+.+.+.+.+.+.+.+.+.$.> . d 1.Q A ` = . @ # o X x u . y x X $ @ o . - f . ; +.| = X x %.+.+.+.+.+.%.+.+.+.( A c g   ",
"    c A ( +.+.+.%.o.%.o.+.+.+.+.%.y . < b : @ x = X g ~ $ X x u . y x X > s X . - v O O f f o @ A %.+.+.%.o.%.o.o.%.o.) A c     ",
"    c A ( +.+.+.o.%.o.o.+.+.+.+.%.V = X o X : I - X x  .= X c u . y x X > +.< . -  .u o o X o i %.+.+.+.o.o.o.%.%.o.%.) A c     ",
"    c Z ( +.o.o.o.o...o...+.+...+.+.L s u d Q  .g s I  .g s Q m s v Q s x o.L s g  . .x i i x ..+...+.+.o.o.o...+.+.o.) A c     ",
"      Z L P P P P P P P P P P L L I I Q Q Q I L Q Q I I Q ~ P ! Q P Q Q Q L P ! I L L Q Q Q Q L P L L L P P P L L L P G A       ",
"        m m m m m m m m m C m m m m m m m C m m m m m m m m m m m m m m m C m m m m m m m m m m m m m m m m m m m m m C         ",
"            g g g g g g g g g g g g g g g g g g g g g g g g g g g g g g g g g g g g g g g g g g g g g g g g g g g g             ",
"                                                                                                                                ",
"                                                                                                                                ",
"                                                                                                                                ",
"                                                                                                                                ",
"                                                      . . . . . . . . . . . .                                                   ",
"                                                    . . . . . . . . . . . . .                                                   ",
"                                                    . . . . . . . . . . . . .                                                   ",
"                                        . . . . . . . . . . . . . . . . . . . . . . . .                                         ",
"                                        . . . . . . . . . . . . . . . . . . . . . . . .                                         ",
"                                        . . . . . . . . . . . . . . . . . . . . . . . .                                         ",
"                                  . . . . . . . . . . . . . . . . . . . . . . . . . . . . . .                                   ",
"                                  . . . . . . . . . . . . . . . . . . . . . . . . . . . . . .                                   ",
"                                  . . . . . . . . . . . . . . . . . . . . . . . . . . . . . .                                   ",
"                            . . . . . . . . X y d d d d f < . . . . . . . . . . @ d d d d d d - . .                             ",
"                            . . . . . . . . X c 1.1.1.1.1.s . . . . . . . . . . = 1.1.1.1.1.1.- . .                             ",
"                            . . . . . . . . X c 1.1.1.1.1.p . . . . . . . . . . $ +.1.1.1.1.%.- . .                             ",
"                            . . . . . o y i i ( 1.1.1.1.1.m i i 1 X . . . $ i i d 1.1.1.1.1.1.f i i                             ",
"                            . . . . . @ ` 1.1.1.1.1.1.1.1.1.1.1.m o . . . 1 1.1.1.1.1.1.1.1.1.1.1.1.1.                          ",
"                            . . . . . @ ~ 1.1.1.1.1.1.1.:.:.1.1.v o . . . 1 1.1.1.1.1.1.1.1.1.1.1.1.1.                          ",
"                            . . . . . @ ( 1.1.1.1.1.z h h h h l 0 X . . . 1 1.1.1.1.1.#.k h h h h h                             ",
"                            . . . . . @ ( 1.1.1.1.1.t 7 8 8 8 9 3 . . . . 1 1.1.1.1.1.' w 7 7 7 7 8                             ",
"                            . . . . . @ ( 1.1.1.1.1.t 7 8 8 8 8 4 . . . . 1 1.1.1.1.1.] w 7 8 8 8 8                             ",
"                          . . . . . . @ ( 1.1.1.1.1.t 7 8 8 8 8 4 . . . . 1 1.1.1.1.1.' w 7 8 8 8 8 3                           ",
"                    . . . . . . . . . @ ( 1.1.1.1.1.t 7 8 8 8 8 4 . . . . 1 1.1.1.1.1.' w 7 8 8 8 8 & . . .                     ",
"                    . . . . . . . . . @ _ 1.1.1.1.1.t 7 7 8 9 9 4 X . . . 1 1.1.1.1.1.' q 7 7 8 8 9 & . . .                     ",
"                    . . . . . . . . . O d g g ` 1.1.j e r 6 3 3 * X . . . : g g v 1.1.[ t r r 5 2 3 % . . .                     ",
"                    . . . . . . . . . . . X o c 1.1.=.=.1.a . . . . . . . . X . = %.1.1.=.1.@.; . . . . . .                     ",
"                    . . . . . . . . . . . . X v 1.1.1.1.1.s . . . . . . . . . . = %.1.1.1.1.1.- . . . . . .                     ",
"                    . . . . . . . . . . . . X s m b b b m y . . . . . . . . . . # c m m b b v = . . . . . .                     ",
"                    . . . . . . . . . . . . . o o o o o o X . . . . . . . . . . . o o o o o o . . . . . . .                     ",
"                    . . . . . . . . . . . . . . . . . . . . . . . . . . . . . . . . . . . . . . . . . . . .                     ",
"                    . . . . . . . . . . . . . . . . . . . . . . . . . . . . . . . . . . . . . . . . . . . .                     ",
"                    . . . . . . . . . . . . . . . . . . . . . . . . . . . . . . . . . . . . . . . . . . . .                     ",
"                    . . . . . . . . . . . . . . . . . . . . . . . . . . . . . . . . . . . . . . . . . . . .                     ",
"                    . . . . . . . . . . . . . . . . . . . . . . . . . . . . . . . . . . . . . . . . . . . .                     ",
"                    . . . . . . . . . . . . . . . . . . . . . . . . . . . . . . . . . . . . . . . . . . . .                     ",
"                    . . . . . . . . . . . . . . . . . . . . . . . . . . . . . . . . . . . . . . . . . . . .                     ",
"                    . . . . . . . . . . . . . . . . . . . . . . . . . . . . . . . . . . . . . . . . . . . .                     ",
"                    . . . . . . . . . . . . . . . . . . . . . . . . . . . . . . . . . . . . . . . . . . . .                     ",
"                    . . . . . . . . . . . . . . . . . . . . . . . . . . . . . . . . . . . . . . . . . . . .                     ",
"                    . . . . . . .       . . . . . . . . . .             . . . . . . . .       . . . . . . .                     ",
"                    . . . . . . .       . . . . . . . . . .             . . . . . . . .       . . . . . . .                     ",
"                    . . . . . . .       . . . . . . . . . .             . . . . . . . .       . . . . . . .                     ",
"                    . . . .                   . . . . . . .             . . . . .                   . . . .                     ",
"                    . . . .                   . . . . . . .             . . . . .                   . . . .                     ",
"                    . . . .                   . . . . . . .             . . . . .                   . . . .                     "
};
