/* XPM */
static char *ccfdc340c348403de5b3582dc618792fzL93NNrRnx0en9if[] = {
/* columns rows colors chars-per-pixel */
"64 64 6 1 ",
"  c None",
". c #2F5753",
"X c #3B7D4F",
"o c #404973",
"O c #686F99",
"+ c #A3A7C2",
/* pixels */
"                              ++++                              ",
"                            ++++++++                            ",
"                          ++++++++++++                          ",
"                        ++++++++++++++OO                        ",
"                      .O+++++++++++oooXX++                      ",
"                    .....O+++++++ooXXX++++++                    ",
"                  ++++++..OO++ooo+++++++++++++                  ",
"                ++++++++++++OO++++++++++++++++o+                ",
"              ++++++++++++++++OO+++++++++++++oo+++              ",
"            +++++++++o++++++oo..OO++++++++++oo++++++            ",
"          ..++++++++++++++oo......OO+++++++oo+++++++++          ",
"        ...XXX++++++++++oo....++....OO++++.++++++++++...        ",
"      ++++++++OO++++++oo+++++++++++...Ooo+.+++++++++++.XOO      ",
"    ++++++++++++OO++oo++++++++++++++++++Oo.++++++++++++X.OOO    ",
"  .+++++++++++++++OO+++++++++++++++++++++.oo++++++++++++X..OOO  ",
"O...++++++++++O+++++OO++++++++++++++++++ooXXOO++++++++++++OOOOOO",
"ooO..+++++++++O+++++++OO++++++++++++++ooXXXXXoOO+O++++++++++++OO",
"OOoo.+++++++++O+++++++++oo+++++++++oooo+++++++++OO++++++++++OO++",
"OOOOoo++++++++O+++++++oo...O++++++oo++++++++++++++OO++++++OO++++",
"OOOOOOoo+++++++O++++oo......OO++oo+++++O++++++++++++.O++OO++++++",
"OOOOOOOOoo++++++O+oo...+++++++Oooo+++++++++++++++++....O..++++++",
"OOOOOOOOOOoo++++oo++++++++++++++OO+++++++++++++++++....O.+++++++",
"OOOOOOOOOOOOoooo++++++++++++++o+++OO++++++++++++++OO+++.O+++++++",
"OOOOOOOOOOOOoOoo..O+++++++++++++++++OO++++++++++OO+++++.O+++++++",
"ooOOOOOOOOOOoOOOoo...+++++++++++++++++OO+++OOOOO+++++++.O+++++OO",
"oOooOOOOOOOoOOOOOOooOOO+++++++++++++++++OOOOOO+++++++++XO+++OO++",
"oOOOooOOOOOoOOOOOOOOooOO++++++++++++...OOOOO+++++++++++XXOOO++++",
"OOOOOOooOOOoOOOOOOOOOOooO++++++++++.OOOOOOoO+++++++++++XOO++++++",
"oOOOOOOOooOoOOOOOOOOOOOOoo++++++++.OOOOOooooO+++++++++OO++++++++",
"oOOOOOOOOOoo.OOOOOOOOOOOOOoo+++++O.OOO.....oO+++++++OO++++++++++",
"ooOOOOOOOOOOo..OOOOOOOOOOOOOoo+++.OO+++++++.O+++++ooo++++++++ooO",
"OOooOOOOOOOOOOo..OOOOOOOOOOOOOooOO+++++++++.O+++OOo+++++++++OOoO",
"OOOOooOOOOOOOOOOooOOOOOOOOOOOoOOO++++++++++.O+OO+++o++++++OO+++o",
"OOOOOOooOOOOOOOOOOooOOOOOOOOOoOOO++++++++++OOO++++++O+++OO+++++O",
"OOOOOOOOooOOOOOOOo.OooOOOOOOOoOOO+++++++++OO++++++++O+OO+++++++O",
"OOOOOOOOoOooOOOOOo.OOOooOOOOOoOOO+++++++OOoo++++++++OO+++++++++O",
"ooOOOOOOoOOOooOOo..OOOOOooOOOoOOO+++++OOooo+++++++OO++++++++++OO",
"OOooOOOOoOOOOOooo.OOOOOOOOooOoOOO+++OOOoo+++++++OO++++++++++OO++",
"OOOOooOOoOOOOOOOooOOOOOOOOOOoooOO+OO..Oo++++++OO++++++++++OO++++",
"OOOOOOoooooOOOOOOOooOOOOOOOOOOoooO....Oo++++OO.+++++++++Ooo+++++",
"OOOOOOOOooooOOOOOOOOooOOOOOOOOOOo..++.O+++OOoO.+++++++OO.Oo+++++",
"OOOOOOOOOOooOOOOOOOOOOooOOOOOOOOo++++.+OOooo+oO.++++OO++.o++++++",
"ooOOOOOOOOOOooOOOOOOOOOOooOOOOOO+o++++OO+++++oO.++OO++++.O++++OO",
"OOooOOOOOOOOOOooOOOOOOOo.OooOOOO+o++OO++++++++O.OO++++++..O+OO++",
"OOOOooOOOOOOOoOOooOOOOo..OOOooOO+oOO++++++++++OO+++++++++.OO++++",
"OOOOOOooOOOOo.OOOOooOOo..OOOOOooOO++++++++++OO++++++++++OO++++++",
"OOOOOOoOooOOo.OOOOOOooOo.OOOOOOO++++++++++OO++++++++++OO..++++++",
"OOOO.oOOOOooO.OOOOOOOOoo.OOOOOOO++++++++OO++++++++++O...++++++++",
"ooOOo.OOOOOOoo.OOOOOOOOOooOOOOOO++++++OO.+++++++++oo.+++++++++OO",
"  oo.oOOOOOOOOooOOOOOOOOOOooOOOO++++OoooO.++++++OO++o+++++++OO  ",
"    ooOOOOOOOOOOooOOOOOOOOOOooOO++OO++++O.++++OO+++++o++++OO    ",
"      ooOOOOOOOOOOooOOOOOOOOOOooOO++++++O.++OO+++++++o++OO      ",
"        ooOOOOOOOOOOooOOOOOOOOOo++++++++O.OO++++++++++OO        ",
"          ooOOOOOOOOOoooOOOOOOOo++++++++OO++++++++++OO          ",
"            ooOOOOOOOoOOooOOOOOo++++++OO++++++++++OO            ",
"              ooOOOOOoOOOOooOOOo++++OO++++++++++OO              ",
"                ooOOOoOOOOOOooOo++OO++++++++++OO                ",
"                  oooOOOOOOOOOooOO++++++++++OO                  ",
"                    ooOOOOOOOOOOO+++++++++OO                    ",
"                      ooOOOOOOOOO+++++++OO                      ",
"                        ooOOOOOOO+++++OO                        ",
"                          ooOOOOO+++OO                          ",
"                            ooOO+OOO                            ",
"                              ooOO                              "
};
